<svg xmlns="http://www.w3.org/2000/svg" width="749.471" height="673.835" viewBox="0 0 749.471 673.835">
  <g id="react" transform="translate(-0.754 -0.785)">
    <path id="Caminho_3" data-name="Caminho 3" d="M.754,336.491c0,56.6,55.27,109.438,142.4,139.222-17.4,87.6-3.117,158.2,44.586,185.711,49.031,28.279,122.078,8.7,191.411-51.9,67.583,58.16,135.885,81.048,183.546,53.458,48.987-28.358,63.883-103.75,46-194.082,90.757-30,141.523-75.059,141.523-132.406,0-55.288-55.37-103.117-141.331-132.709,19.25-94.065,2.94-162.955-46.739-191.6C514.261-15.439,445.164,8.633,376.588,68.313,305.244,4.969,236.83-14.37,187.2,14.357c-47.85,27.7-61.5,99.588-44.047,188.8C58.964,232.514.754,281.427.754,336.491Z" transform="translate(0 0)" fill="#fff"/>
    <path id="Caminho_4" data-name="Caminho 4" d="M562.5,206.454q-10.627-3.645-21.427-6.752,1.79-7.276,3.311-14.614C560.6,106.357,550,42.93,513.783,22.051c-34.721-20.025-91.508.854-148.86,50.763q-8.477,7.394-16.572,15.208-5.419-5.195-11.029-10.186C277.215,24.467,216.966,1.979,180.79,22.92,146.1,43,135.828,102.63,150.429,177.245q2.179,11.084,4.919,22.046c-8.525,2.421-16.758,5-24.635,7.747C60.247,231.6,15.243,270.11,15.243,310.048c0,41.251,48.309,82.626,121.71,107.712q8.928,3.037,18,5.626-2.946,11.806-5.229,23.763c-13.921,73.318-3.049,131.534,31.548,151.491,35.734,20.605,95.708-.574,154.109-51.623q6.924-6.053,13.889-12.8,8.766,8.457,17.992,16.416c56.569,48.677,112.437,68.334,147,48.324,35.7-20.667,47.3-83.207,32.238-159.3q-1.723-8.718-3.991-17.792Q548.83,420,554.89,418c76.305-25.28,125.949-66.151,125.949-107.953,0-40.082-46.453-78.847-118.34-103.594Z" transform="translate(28.191 26.714)" fill="#53c1de"/>
    <path id="Caminho_5" data-name="Caminho 5" d="M527.167,372.276c-3.638,1.2-7.373,2.368-11.179,3.5a667.365,667.365,0,0,0-33.7-84.32,667.062,667.062,0,0,0,32.394-83.092c6.807,1.974,13.418,4.05,19.786,6.245,61.594,21.2,99.164,52.551,99.164,76.706,0,25.731-40.577,59.135-106.457,80.965Zm-27.336,54.168c6.66,33.646,7.612,64.066,3.2,87.846-3.965,21.368-11.936,35.613-21.792,41.319-20.976,12.142-65.836-3.641-114.21-45.269q-8.32-7.158-16.737-15.259a668.184,668.184,0,0,0,55.791-70.844,663.757,663.757,0,0,0,90.147-13.895q2.032,8.218,3.6,16.1ZM223.378,553.512c-20.493,7.238-36.815,7.444-46.68,1.756-21-12.107-29.722-58.855-17.818-121.554q2.123-11.115,4.86-22.1a668.61,668.61,0,0,0,89.7,12.985,691.91,691.91,0,0,0,57.134,70.59q-6.2,5.993-12.681,11.677c-25.825,22.576-51.7,38.589-74.508,46.645Zm-96.009-181.4c-32.456-11.093-59.258-25.51-77.631-41.24C33.231,316.738,24.9,302.7,24.9,291.311c0-24.234,36.135-55.149,96.4-76.161q11.346-3.939,22.909-7.208A681.924,681.924,0,0,0,176.645,292,692.286,692.286,0,0,0,143.8,377.26q-8.277-2.369-16.431-5.143Zm32.185-219.071c-12.51-63.93-4.2-112.154,16.7-124.255,22.269-12.89,71.507,5.491,123.4,51.57,3.317,2.946,6.648,6.03,9.986,9.22a681.381,681.381,0,0,0-56.7,70.166,694.764,694.764,0,0,0-88.818,13.8q-2.545-10.195-4.575-20.508ZM446.661,223.94q-9.76-16.859-20.24-33.286c21.238,2.681,41.584,6.245,60.69,10.607a606.536,606.536,0,0,1-21.3,57.314q-9.227-17.507-19.147-34.635ZM329.579,109.9a608.093,608.093,0,0,1,39.169,47.284q-39.311-1.857-78.667-.018c12.931-17.053,26.178-32.895,39.5-47.266ZM211.746,224.134q-9.794,16.988-18.788,34.42c-8.28-19.639-15.365-38.948-21.15-57.594,18.991-4.251,39.242-7.724,60.342-10.36q-10.595,16.525-20.4,33.534ZM232.757,394.05a605.431,605.431,0,0,1-61.341-9.862c5.877-18.976,13.117-38.7,21.574-58.761q9.029,17.44,18.87,34.441,10.039,17.338,20.9,34.182Zm97.608,80.679c-13.477-14.543-26.918-30.626-40.047-47.926q19.115.751,38.942.754,20.352,0,40.179-.893A604.664,604.664,0,0,1,330.366,474.73ZM466.079,324.405a603.875,603.875,0,0,1,22.352,58.551,603.457,603.457,0,0,1-62.089,10.584q10.553-16.73,20.434-33.869,10.043-17.416,19.3-35.266Zm-43.935,21.062q-15.124,26.272-31.931,51.52c-19.748,1.411-40.156,2.139-60.952,2.139-20.711,0-40.86-.645-60.263-1.9q-17.235-25.175-32.529-51.6-15.211-26.266-28.4-53.629,13.141-27.352,28.311-53.659v.006q15.155-26.293,32.273-51.379c19.795-1.5,40.091-2.28,60.607-2.28,20.608,0,40.93.789,60.719,2.3q16.933,25.029,32.07,51.2,15.212,26.229,28.694,53.405-13.336,27.439-28.6,53.877ZM480.8,27.946c22.287,12.855,30.956,64.69,16.952,132.668q-1.377,6.642-2.993,13.232a681.159,681.159,0,0,0-89-14.06A667.95,667.95,0,0,0,349.5,89.567q7.477-7.209,15.306-14.039c49.14-42.765,95.066-59.65,115.992-47.582Z" transform="translate(46.971 45.451)" fill="#fff"/>
    <path id="Caminho_6" data-name="Caminho 6" d="M167.479,94.665A59.437,59.437,0,1,1,108.044,154.1a59.435,59.435,0,0,1,59.435-59.435" transform="translate(208.753 182.662)" fill="#53c1de"/>
  </g>
</svg>
