<svg xmlns="http://www.w3.org/2000/svg" width="676.351" height="812.833" viewBox="0 0 676.351 812.833">
  <g id="svelte-seeklogo.com" transform="translate(0 0)">
    <path id="Caminho_1" data-name="Caminho 1" d="M633.238,107.547C557.761-.481,408.693-32.5,300.91,36.172L111.616,156.817a217.167,217.167,0,0,0-98.11,145.459A228.708,228.708,0,0,0,36.059,449.107,217.768,217.768,0,0,0,3.573,530.267,231.43,231.43,0,0,0,43.107,705.285C118.6,813.323,267.668,845.329,375.435,776.66L564.728,656.015a217.126,217.126,0,0,0,98.11-145.459A228.8,228.8,0,0,0,640.3,363.721a217.722,217.722,0,0,0,32.472-81.156,231.367,231.367,0,0,0-39.533-175.018" transform="translate(0 0)" fill="#fff"/>
    <path id="Caminho_2" data-name="Caminho 2" d="M223.338,658.094A150.405,150.405,0,0,1,61.906,598.257,139.194,139.194,0,0,1,38.119,492.975a132.039,132.039,0,0,1,4.525-17.682l3.566-10.873,9.7,7.125a244.242,244.242,0,0,0,74.069,37.008l7.037,2.135-.648,7.024a42.45,42.45,0,0,0,7.637,28.153,45.292,45.292,0,0,0,48.6,18.04,41.708,41.708,0,0,0,11.631-5.111L393.6,438.126a39.424,39.424,0,0,0,17.79-26.36,42.068,42.068,0,0,0-7.169-31.733,45.326,45.326,0,0,0-48.623-18.05,41.691,41.691,0,0,0-11.615,5.108l-72.256,46.061a138.171,138.171,0,0,1-38.45,16.885A150.4,150.4,0,0,1,71.843,370.2,139.184,139.184,0,0,1,48.056,264.917a130.589,130.589,0,0,1,59.02-87.487L296.414,56.752A137.96,137.96,0,0,1,334.89,39.847,150.405,150.405,0,0,1,496.319,99.685a139.194,139.194,0,0,1,23.787,105.282,133.581,133.581,0,0,1-4.525,17.682l-3.566,10.873-9.7-7.114a244.05,244.05,0,0,0-74.075-37.024l-7.037-2.136.648-7.024a42.532,42.532,0,0,0-7.637-28.153,45.292,45.292,0,0,0-48.6-18.04,41.706,41.706,0,0,0-11.631,5.111L164.629,259.816a39.36,39.36,0,0,0-17.777,26.352,42.005,42.005,0,0,0,7.155,31.737,45.327,45.327,0,0,0,48.623,18.05,41.854,41.854,0,0,0,11.63-5.111L286.507,284.8a137.773,137.773,0,0,1,38.446-16.9,150.4,150.4,0,0,1,161.43,59.839,139.184,139.184,0,0,1,23.787,105.281,130.656,130.656,0,0,1-59.02,87.5L261.811,641.189a137.961,137.961,0,0,1-38.476,16.905" transform="translate(59.062 57.467)" fill="#ff3e00"/>
  </g>
</svg>
